<svg xmlns="http://www.w3.org/2000/svg" viewBox="0 0 1200 900" width="1200" height="900" role="img" aria-label="Плейсхолдер изображения">
<rect width="1200" height="900" fill="#0E0E0E"/>
<polygon points="-268,0 -117,0 396,900 245,900" fill="#FFFFFF" opacity="0.063"/>
<polygon points="763,0 933,0 1791,900 1621,900" fill="#FFFFFF" opacity="0.058"/>
<polygon points="982,0 1348,0 1911,900 1545,900" fill="#FFFFFF" opacity="0.036"/>
<polygon points="435,0 758,0 1594,900 1271,900" fill="#FFFFFF" opacity="0.079"/>
<polygon points="-413,0 -63,0 459,900 109,900" fill="#FFFFFF" opacity="0.099"/>
<rect x="529" y="103" width="171" height="162" fill="#EF3124"/>
<g stroke="#FFFFFF" stroke-width="1" opacity="0.05"><line x1="0" y1="100" x2="1200" y2="100"/><line x1="0" y1="200" x2="1200" y2="200"/><line x1="0" y1="300" x2="1200" y2="300"/><line x1="0" y1="400" x2="1200" y2="400"/><line x1="0" y1="500" x2="1200" y2="500"/><line x1="0" y1="600" x2="1200" y2="600"/><line x1="0" y1="700" x2="1200" y2="700"/><line x1="0" y1="800" x2="1200" y2="800"/></g>
<text x="60" y="840" fill="#FFFFFF" opacity="0.72" font-family="JetBrains Mono, ui-monospace, monospace" font-size="26" letter-spacing="3.6">ЭЛЕКТРОНИКА</text>
<text x="60" y="791" fill="#EF3124" font-family="JetBrains Mono, ui-monospace, monospace" font-size="21" letter-spacing="3.1">1200×900</text>
</svg>