<svg xmlns="http://www.w3.org/2000/svg" viewBox="0 0 1200 800" width="1200" height="800" role="img" aria-label="Плейсхолдер изображения">
<rect width="1200" height="800" fill="#0E0E0E"/>
<polygon points="407,0 804,0 1199,800 802,800" fill="#FFFFFF" opacity="0.06"/>
<polygon points="198,0 407,0 999,800 789,800" fill="#FFFFFF" opacity="0.053"/>
<polygon points="245,0 580,0 1141,800 806,800" fill="#FFFFFF" opacity="0.09"/>
<polygon points="197,0 451,0 1047,800 792,800" fill="#FFFFFF" opacity="0.11"/>
<polygon points="-178,0 175,0 627,800 274,800" fill="#FFFFFF" opacity="0.063"/>
<rect x="284" y="165" width="202" height="196" fill="#FFFFFF" opacity="0.116"/>
<g stroke="#FFFFFF" stroke-width="1" opacity="0.05"><line x1="0" y1="100" x2="1200" y2="100"/><line x1="0" y1="200" x2="1200" y2="200"/><line x1="0" y1="300" x2="1200" y2="300"/><line x1="0" y1="400" x2="1200" y2="400"/><line x1="0" y1="500" x2="1200" y2="500"/><line x1="0" y1="600" x2="1200" y2="600"/><line x1="0" y1="700" x2="1200" y2="700"/></g>
<text x="600" y="400" fill="#FFFFFF" opacity="0.55" text-anchor="middle" font-family="JetBrains Mono, ui-monospace, monospace" font-size="22" letter-spacing="3.5">СЪЁМКА ЛИНЕЙКИ</text>
<text x="600" y="446" fill="#FFFFFF" opacity="0.3" text-anchor="middle" font-family="JetBrains Mono, ui-monospace, monospace" font-size="17" letter-spacing="2.6">1200×800</text>
</svg>