<svg xmlns="http://www.w3.org/2000/svg" viewBox="0 0 1600 1000" width="1600" height="1000" role="img" aria-label="Плейсхолдер изображения">
<rect width="1600" height="1000" fill="#0E0E0E"/>
<polygon points="1211,0 1527,0 2332,1000 2016,1000" fill="#FFFFFF" opacity="0.047"/>
<polygon points="-306,0 216,0 865,1000 343,1000" fill="#FFFFFF" opacity="0.063"/>
<polygon points="-491,0 -4,0 1195,1000 708,1000" fill="#FFFFFF" opacity="0.074"/>
<polygon points="1027,0 1271,0 2190,1000 1946,1000" fill="#FFFFFF" opacity="0.048"/>
<polygon points="1038,0 1416,0 2074,1000 1696,1000" fill="#FFFFFF" opacity="0.096"/>
<rect x="804" y="312" width="200" height="223" fill="#FFFFFF" opacity="0.144"/>
<g stroke="#FFFFFF" stroke-width="1" opacity="0.05"><line x1="0" y1="133" x2="1600" y2="133"/><line x1="0" y1="267" x2="1600" y2="267"/><line x1="0" y1="400" x2="1600" y2="400"/><line x1="0" y1="533" x2="1600" y2="533"/><line x1="0" y1="667" x2="1600" y2="667"/><line x1="0" y1="800" x2="1600" y2="800"/><line x1="0" y1="933" x2="1600" y2="933"/></g>
<text x="800" y="500" fill="#FFFFFF" opacity="0.55" text-anchor="middle" font-family="JetBrains Mono, ui-monospace, monospace" font-size="28" letter-spacing="4.5">ОБЛОЖКА КЕЙСА</text>
<text x="800" y="559" fill="#FFFFFF" opacity="0.3" text-anchor="middle" font-family="JetBrains Mono, ui-monospace, monospace" font-size="22" letter-spacing="3.4">1600×1000</text>
</svg>