<svg xmlns="http://www.w3.org/2000/svg" viewBox="0 0 1600 640" width="1600" height="640" role="img" aria-label="Плейсхолдер изображения">
<rect width="1600" height="640" fill="#0E0E0E"/>
<polygon points="-523,0 -188,0 470,640 136,640" fill="#FFFFFF" opacity="0.049"/>
<polygon points="1012,0 1554,0 2059,640 1516,640" fill="#FFFFFF" opacity="0.064"/>
<polygon points="1413,0 1664,0 2326,640 2075,640" fill="#FFFFFF" opacity="0.097"/>
<polygon points="1235,0 1635,0 2821,640 2420,640" fill="#FFFFFF" opacity="0.058"/>
<rect x="909" y="262" width="125" height="115" fill="#FFFFFF" opacity="0.112"/>
<g stroke="#FFFFFF" stroke-width="1" opacity="0.05"><line x1="0" y1="133" x2="1600" y2="133"/><line x1="0" y1="267" x2="1600" y2="267"/><line x1="0" y1="400" x2="1600" y2="400"/><line x1="0" y1="533" x2="1600" y2="533"/></g>
<text x="800" y="320" fill="#FFFFFF" opacity="0.55" text-anchor="middle" font-family="JetBrains Mono, ui-monospace, monospace" font-size="18" letter-spacing="2.9">КАРТА · МОСКВА</text>
<text x="800" y="358" fill="#FFFFFF" opacity="0.3" text-anchor="middle" font-family="JetBrains Mono, ui-monospace, monospace" font-size="14" letter-spacing="2.2">1600×640</text>
</svg>