<svg xmlns="http://www.w3.org/2000/svg" viewBox="0 0 900 1200" width="900" height="1200" role="img" aria-label="Плейсхолдер изображения">
<rect width="900" height="1200" fill="#0E0E0E"/>
<polygon points="73,0 374,0 891,1200 590,1200" fill="#FFFFFF" opacity="0.079"/>
<polygon points="301,0 528,0 1086,1200 860,1200" fill="#FFFFFF" opacity="0.043"/>
<polygon points="425,0 538,0 896,1200 783,1200" fill="#FFFFFF" opacity="0.035"/>
<rect x="366" y="467" width="170" height="181" fill="#EF3124"/>
<g stroke="#FFFFFF" stroke-width="1" opacity="0.05"><line x1="0" y1="100" x2="900" y2="100"/><line x1="0" y1="200" x2="900" y2="200"/><line x1="0" y1="300" x2="900" y2="300"/><line x1="0" y1="400" x2="900" y2="400"/><line x1="0" y1="500" x2="900" y2="500"/><line x1="0" y1="600" x2="900" y2="600"/><line x1="0" y1="700" x2="900" y2="700"/><line x1="0" y1="800" x2="900" y2="800"/><line x1="0" y1="900" x2="900" y2="900"/><line x1="0" y1="1000" x2="900" y2="1000"/><line x1="0" y1="1100" x2="900" y2="1100"/></g>
<text x="45" y="1155" fill="#FFFFFF" opacity="0.72" font-family="JetBrains Mono, ui-monospace, monospace" font-size="20" letter-spacing="2.8">ПОРТРЕТ</text>
<text x="45" y="1117" fill="#EF3124" font-family="JetBrains Mono, ui-monospace, monospace" font-size="16" letter-spacing="2.4">900×1200</text>
</svg>