<svg xmlns="http://www.w3.org/2000/svg" viewBox="0 0 900 1200" width="900" height="1200" role="img" aria-label="Плейсхолдер изображения">
<rect width="900" height="1200" fill="#0E0E0E"/>
<polygon points="-71,0 107,0 522,1200 344,1200" fill="#FFFFFF" opacity="0.048"/>
<polygon points="222,0 523,0 756,1200 455,1200" fill="#FFFFFF" opacity="0.074"/>
<polygon points="735,0 1033,0 1475,1200 1177,1200" fill="#FFFFFF" opacity="0.089"/>
<polygon points="311,0 536,0 1007,1200 782,1200" fill="#FFFFFF" opacity="0.072"/>
<rect x="249" y="474" width="154" height="140" fill="#FFFFFF" opacity="0.141"/>
<g stroke="#FFFFFF" stroke-width="1" opacity="0.05"><line x1="0" y1="100" x2="900" y2="100"/><line x1="0" y1="200" x2="900" y2="200"/><line x1="0" y1="300" x2="900" y2="300"/><line x1="0" y1="400" x2="900" y2="400"/><line x1="0" y1="500" x2="900" y2="500"/><line x1="0" y1="600" x2="900" y2="600"/><line x1="0" y1="700" x2="900" y2="700"/><line x1="0" y1="800" x2="900" y2="800"/><line x1="0" y1="900" x2="900" y2="900"/><line x1="0" y1="1000" x2="900" y2="1000"/><line x1="0" y1="1100" x2="900" y2="1100"/></g>
<text x="450" y="600" fill="#FFFFFF" opacity="0.55" text-anchor="middle" font-family="JetBrains Mono, ui-monospace, monospace" font-size="25" letter-spacing="4.0">ПОРТРЕТ</text>
<text x="450" y="652" fill="#FFFFFF" opacity="0.3" text-anchor="middle" font-family="JetBrains Mono, ui-monospace, monospace" font-size="20" letter-spacing="3.0">900×1200</text>
</svg>